<?xml version="1.0" encoding="utf-8"?>
<svg version="1.1" id="Layer_1" x="0px" y="0px" style="enable-background:new 0 0 1354.2 709.9;" viewBox="20 20 804 137" width="804px" height="137px" xmlns="http://www.w3.org/2000/svg">
  <style type="text/css">
	.st0{clip-path:url(#SVGID_2_);fill:url(#SVGID_3_);}
	.st1{clip-path:url(#SVGID_5_);fill:url(#SVGID_6_);}
	.st2{clip-path:url(#SVGID_8_);fill:#7A7976;}
	.st3{clip-path:url(#SVGID_8_);fill:#EA5B24;}
	.st4{clip-path:url(#SVGID_8_);fill-rule:evenodd;clip-rule:evenodd;fill:#666463;}
</style>
  <g>
    <defs>
      <path id="SVGID_1_" d="M32.9,84.7c-0.6-4.8,0-12.7,1.7-16.8c6.5-15.8,17.8-21,33.7-23.1c15.3-2,31,5.5,40.1,16.5 c1.4,1.7,2.7,3.5,3.9,5.6c1,1.7,0.9,1.6,0.2,3.6c-3.9,11.3-7.9,19.3-14,28.6c-4.5,6.8-12,13.2-22,15.7c-3.3,0.8-6.4,1.2-9.4,1.2 C48.5,116,34.9,101.4,32.9,84.7 M58,30.5C35.2,37.3,21.9,63.1,24.4,87c2.7,25.9,24.1,43.3,48.1,42c16.8-0.9,29.3-9,38.2-22.2 c4.3-6.4,6.5-13,9.4-20.8c3.7-9.9,9.3-21,15.8-29.2c11.8-14.9,28.1-22.4,46.6-13.3c1.8,0.9,3.5,2.2,5,2.8 c-1.9-3.7-10.6-11.2-15.3-13.6c-7.7-3.8-14.9-4.8-24-1.8c-6.7,2.2-13.9,7.4-17.7,11.1c-4.6,4.4-6.5,6.4-10.4,11.4 c-0.9,1.2-2.1,3.1-3,4.1c-5.1-7.3-5.8-9.6-13.5-16.5c-8.9-8-20-12.6-31.8-12.6C67.1,28.5,62.6,29.2,58,30.5"/>
    </defs>
    <clipPath id="SVGID_2_">
      <path d="M32.9,84.7c-0.6-4.8,0-12.7,1.7-16.8c6.5-15.8,17.8-21,33.7-23.1c15.3-2,31,5.5,40.1,16.5 c1.4,1.7,2.7,3.5,3.9,5.6c1,1.7,0.9,1.6,0.2,3.6c-3.9,11.3-7.9,19.3-14,28.6c-4.5,6.8-12,13.2-22,15.7c-3.3,0.8-6.4,1.2-9.4,1.2 C48.5,116,34.9,101.4,32.9,84.7 M58,30.5C35.2,37.3,21.9,63.1,24.4,87c2.7,25.9,24.1,43.3,48.1,42c16.8-0.9,29.3-9,38.2-22.2 c4.3-6.4,6.5-13,9.4-20.8c3.7-9.9,9.3-21,15.8-29.2c11.8-14.9,28.1-22.4,46.6-13.3c1.8,0.9,3.5,2.2,5,2.8 c-1.9-3.7-10.6-11.2-15.3-13.6c-7.7-3.8-14.9-4.8-24-1.8c-6.7,2.2-13.9,7.4-17.7,11.1c-4.6,4.4-6.5,6.4-10.4,11.4 c-0.9,1.2-2.1,3.1-3,4.1c-5.1-7.3-5.8-9.6-13.5-16.5c-8.9-8-20-12.6-31.8-12.6C67.1,28.5,62.6,29.2,58,30.5" style="overflow: visible;"/>
    </clipPath>
    <linearGradient id="SVGID_3_" gradientUnits="userSpaceOnUse" x1="0" y1="175.72" x2="1" y2="175.72" gradientTransform="matrix(111.7559 67.1497 67.1497 -111.7559 -11760.3018 19677.5195)">
      <stop offset="0" style="stop-color:#ED6C07"/>
      <stop offset="0.2147" style="stop-color:#ED6C07"/>
      <stop offset="0.3427" style="stop-color:#EC6309"/>
      <stop offset="0.5623" style="stop-color:#EA5B0B"/>
      <stop offset="1" style="stop-color:#EA590C"/>
    </linearGradient>
    <polygon class="st0" points="65.8,-45.1 232.6,55.1 143.5,203.3 -23.2,103.1 &#9;"/>
  </g>
  <g>
    <defs>
      <path id="SVGID_4_" d="M132.1,108.5c-1.1-1.9-0.2-3.1,0.6-5.3c1.9-5.3,4.1-10.6,6.6-15.4c6.2-11.2,11.2-20.1,24-25.4 c8-3.3,17.6-3.6,26.1-0.7c16.2,5.6,24.2,23.7,22,39.8c-2.1,15-15,26.5-29.6,28.8c-3.2,0.5-6.2,0.7-9.2,0.7 C154.3,131,140.1,122.1,132.1,108.5 M153.4,51.3c-11,5.2-18.4,14.3-23.4,24.5c-3.4,6.9-6.1,15.2-9.2,22.6 c-5.2,11.3-10.2,19.1-18.9,27.8C89.3,138.6,70.7,139,56.7,129l3.2,3.8c3,3.6,7.7,7.4,12,9.8c6.9,3.9,15.3,4.9,23.8,2.4 c11.4-3.4,21.4-13.2,28.7-22.5c0.9-1.2,2.3-3.4,3.2-4.3l6,8.3c2.2,2.7,4.4,5.1,6.9,7.4c17.9,16.4,43.3,18.2,62.2,2.4 c8.3-7,17.5-23.6,17.9-39.7c0.4-20.1-9.3-38.2-27.4-46.1c-6.1-2.7-12.5-4-18.8-4C167,46.6,160,48.2,153.4,51.3"/>
    </defs>
    <clipPath id="SVGID_5_">
      <path d="M132.1,108.5c-1.1-1.9-0.2-3.1,0.6-5.3c1.9-5.3,4.1-10.6,6.6-15.4c6.2-11.2,11.2-20.1,24-25.4 c8-3.3,17.6-3.6,26.1-0.7c16.2,5.6,24.2,23.7,22,39.8c-2.1,15-15,26.5-29.6,28.8c-3.2,0.5-6.2,0.7-9.2,0.7 C154.3,131,140.1,122.1,132.1,108.5 M153.4,51.3c-11,5.2-18.4,14.3-23.4,24.5c-3.4,6.9-6.1,15.2-9.2,22.6 c-5.2,11.3-10.2,19.1-18.9,27.8C89.3,138.6,70.7,139,56.7,129l3.2,3.8c3,3.6,7.7,7.4,12,9.8c6.9,3.9,15.3,4.9,23.8,2.4 c11.4-3.4,21.4-13.2,28.7-22.5c0.9-1.2,2.3-3.4,3.2-4.3l6,8.3c2.2,2.7,4.4,5.1,6.9,7.4c17.9,16.4,43.3,18.2,62.2,2.4 c8.3-7,17.5-23.6,17.9-39.7c0.4-20.1-9.3-38.2-27.4-46.1c-6.1-2.7-12.5-4-18.8-4C167,46.6,160,48.2,153.4,51.3" style="overflow: visible;"/>
    </clipPath>
    <linearGradient id="SVGID_6_" gradientUnits="userSpaceOnUse" x1="0" y1="175.7752" x2="1" y2="175.7752" gradientTransform="matrix(29.2323 95.6144 95.6144 -29.2323 -16680.1836 5197.3169)">
      <stop offset="0" style="stop-color:#797875"/>
      <stop offset="0.2147" style="stop-color:#797875"/>
      <stop offset="0.239" style="stop-color:#767572"/>
      <stop offset="0.3977" style="stop-color:#6A6866"/>
      <stop offset="0.6008" style="stop-color:#62605F"/>
      <stop offset="1" style="stop-color:#605E5D"/>
    </linearGradient>
    <polygon class="st1" points="206.8,0.7 250.4,143.1 70.7,198 27.2,55.6 &#9;"/>
  </g>
  <g>
    <defs>
      <rect id="SVGID_7_" width="841.9" height="175.7"/>
    </defs>
    <clipPath id="SVGID_8_">
      <rect width="841.9" height="175.7" style="overflow: visible;"/>
    </clipPath>
    <path class="st2" d="M798.3,133.6v-3.9c1.6,1.2,3.3,1.8,5.2,1.8c2.6,0,3.8-0.8,3.8-2.3c0-0.4-0.1-0.8-0.3-1.1 c-0.2-0.3-0.5-0.6-0.9-0.8c-0.4-0.2-0.8-0.4-1.3-0.6c-0.5-0.2-1.1-0.4-1.7-0.6c-0.8-0.3-1.5-0.6-2.1-1c-0.6-0.3-1.1-0.7-1.5-1.2 c-0.4-0.4-0.7-0.9-0.9-1.5c-0.2-0.5-0.3-1.2-0.3-1.9c0-0.9,0.2-1.7,0.6-2.4c0.4-0.7,1-1.3,1.7-1.7c0.7-0.5,1.5-0.8,2.4-1.1 c0.9-0.2,1.9-0.4,2.8-0.4c1.7,0,3.3,0.3,4.6,0.8v3.7c-1.3-0.9-2.8-1.3-4.5-1.3c-0.5,0-1,0.1-1.4,0.2c-0.4,0.1-0.8,0.3-1.1,0.5 c-0.3,0.2-0.5,0.4-0.7,0.7c-0.2,0.3-0.3,0.6-0.3,0.9c0,0.4,0.1,0.7,0.3,1c0.2,0.3,0.4,0.5,0.8,0.7c0.3,0.2,0.7,0.4,1.2,0.6 c0.5,0.2,1,0.4,1.6,0.6c0.8,0.3,1.5,0.7,2.2,1c0.6,0.3,1.2,0.7,1.6,1.2c0.4,0.4,0.8,0.9,1,1.5c0.2,0.6,0.4,1.2,0.4,2 c0,0.9-0.2,1.8-0.7,2.5c-0.4,0.7-1,1.3-1.7,1.8c-0.7,0.5-1.6,0.8-2.5,1c-1,0.2-2,0.3-3,0.3C801.5,134.6,799.8,134.3,798.3,133.6 M794.3,134.2H790v-10.5c0-3.5-1.2-5.2-3.7-5.2c-1.3,0-2.4,0.5-3.2,1.4c-0.8,1-1.3,2.2-1.3,3.7v10.6h-4.2v-18.7h4.2v3.1h0.1 c1.4-2.4,3.4-3.5,6-3.5c2,0,3.6,0.7,4.6,2c1.1,1.3,1.6,3.2,1.6,5.7V134.2z M763.8,118.4c-1.7,0-3,0.6-3.9,1.7 c-1,1.2-1.4,2.8-1.4,4.8c0,2,0.5,3.5,1.5,4.6c1,1.1,2.3,1.7,3.9,1.7c1.7,0,2.9-0.6,3.8-1.7c0.9-1.1,1.3-2.7,1.3-4.7 c0-2.1-0.4-3.6-1.3-4.8C766.8,119,765.5,118.4,763.8,118.4 M763.6,134.6c-2.9,0-5.2-0.9-6.9-2.6c-1.7-1.7-2.6-4.1-2.6-6.9 c0-3.1,0.9-5.6,2.7-7.4c1.8-1.8,4.2-2.6,7.2-2.6c2.9,0,5.2,0.9,6.8,2.6c1.6,1.7,2.4,4.1,2.4,7.1c0,3-0.9,5.4-2.6,7.2 C768.9,133.7,766.6,134.6,763.6,134.6 M749.8,134.2h-4.2v-18.7h4.2V134.2z M747.7,111.6c-0.7,0-1.3-0.2-1.8-0.7 c-0.5-0.5-0.7-1-0.7-1.7s0.2-1.3,0.7-1.7c0.5-0.5,1.1-0.7,1.8-0.7c0.7,0,1.3,0.2,1.8,0.7c0.5,0.5,0.7,1,0.7,1.7 c0,0.7-0.2,1.2-0.7,1.7C749,111.4,748.4,111.6,747.7,111.6 M742,134c-0.8,0.4-1.9,0.6-3.3,0.6c-3.6,0-5.4-1.7-5.4-5.2v-10.5h-3.1 v-3.3h3.1v-4.3l4.2-1.2v5.5h4.5v3.3h-4.5v9.3c0,1.1,0.2,1.9,0.6,2.4c0.4,0.5,1.1,0.7,2,0.7c0.7,0,1.3-0.2,1.9-0.6V134z M726.6,134.2h-4.2v-2.9h-0.1c-1.2,2.3-3.1,3.4-5.7,3.4c-4.4,0-6.6-2.6-6.6-8v-11.2h4.2v10.7c0,3.4,1.3,5,3.9,5 c1.3,0,2.3-0.5,3.1-1.4c0.8-0.9,1.2-2.1,1.2-3.6v-10.7h4.2V134.2z M704.8,134.2h-4.2v-27.6h4.2V134.2z M686.8,118.4 c-1.7,0-3,0.6-3.9,1.7c-1,1.2-1.4,2.8-1.4,4.8c0,2,0.5,3.5,1.5,4.6c1,1.1,2.3,1.7,3.9,1.7c1.7,0,2.9-0.6,3.8-1.7 c0.9-1.1,1.3-2.7,1.3-4.7c0-2.1-0.4-3.6-1.3-4.8C689.7,119,688.4,118.4,686.8,118.4 M686.6,134.6c-2.9,0-5.2-0.9-6.9-2.6 c-1.7-1.7-2.6-4.1-2.6-6.9c0-3.1,0.9-5.6,2.7-7.4c1.8-1.8,4.2-2.6,7.2-2.6c2.9,0,5.2,0.9,6.8,2.6c1.6,1.7,2.4,4.1,2.4,7.1 c0,3-0.9,5.4-2.6,7.2C691.9,133.7,689.5,134.6,686.6,134.6 M657.2,133.2v-4.5c0.4,0.4,0.9,0.7,1.4,1c0.6,0.3,1.1,0.5,1.8,0.7 c0.6,0.2,1.2,0.4,1.9,0.5c0.6,0.1,1.2,0.2,1.7,0.2c1.8,0,3.2-0.3,4.1-0.9c0.9-0.6,1.3-1.5,1.3-2.6c0-0.6-0.2-1.2-0.4-1.6 c-0.3-0.5-0.7-0.9-1.2-1.2c-0.5-0.4-1.2-0.7-1.9-1.1c-0.7-0.3-1.5-0.7-2.3-1.1c-0.9-0.5-1.7-1-2.5-1.4c-0.8-0.5-1.4-1-2-1.6 c-0.6-0.6-1-1.3-1.3-2c-0.3-0.7-0.5-1.6-0.5-2.6c0-1.2,0.3-2.3,0.8-3.2c0.5-0.9,1.3-1.6,2.2-2.2c0.9-0.6,1.9-1,3.1-1.3 c1.2-0.3,2.3-0.4,3.5-0.4c2.7,0,4.7,0.3,6,0.9v4.3c-1.5-1.1-3.4-1.6-5.7-1.6c-0.6,0-1.3,0.1-1.9,0.2c-0.6,0.1-1.2,0.3-1.7,0.6 c-0.5,0.3-0.9,0.6-1.2,1.1c-0.3,0.4-0.5,1-0.5,1.6c0,0.6,0.1,1.1,0.4,1.5c0.2,0.4,0.6,0.8,1.1,1.2c0.5,0.4,1,0.7,1.7,1 c0.7,0.3,1.5,0.7,2.3,1.1c0.9,0.5,1.8,1,2.6,1.5c0.8,0.5,1.5,1.1,2.1,1.7c0.6,0.6,1.1,1.3,1.5,2.1c0.4,0.8,0.5,1.6,0.5,2.6 c0,1.3-0.3,2.4-0.8,3.4c-0.5,0.9-1.3,1.6-2.2,2.2c-0.9,0.6-1.9,1-3.1,1.2c-1.2,0.3-2.4,0.4-3.7,0.4c-0.4,0-1,0-1.6-0.1 c-0.6-0.1-1.3-0.2-2-0.3c-0.7-0.1-1.3-0.3-1.9-0.5C658.1,133.6,657.6,133.4,657.2,133.2 M638,125.6v-2.4c0-1.3-0.4-2.4-1.3-3.4 c-0.9-0.9-2-1.4-3.3-1.4c-1.6,0-2.9,0.6-3.8,1.8c-0.9,1.2-1.4,2.9-1.4,5c0,1.8,0.4,3.3,1.3,4.4c0.9,1.1,2,1.7,3.5,1.7 c1.5,0,2.6-0.5,3.6-1.6C637.5,128.6,638,127.3,638,125.6 M642.2,132.7c0,6.8-3.4,10.3-10.3,10.3c-2.4,0-4.6-0.4-6.4-1.2v-3.9 c2,1.2,4,1.8,5.8,1.8c4.4,0,6.7-2.2,6.7-6.5v-2h-0.1c-1.4,2.4-3.5,3.6-6.3,3.6c-2.3,0-4.1-0.8-5.5-2.5c-1.4-1.7-2.1-3.9-2.1-6.7 c0-3.2,0.7-5.7,2.2-7.6c1.5-1.9,3.6-2.8,6.2-2.8c2.5,0,4.3,1,5.5,3h0.1v-2.6h4.2V132.7z M620,134.2h-4.2v-10.5 c0-3.5-1.2-5.2-3.7-5.2c-1.3,0-2.4,0.5-3.2,1.4c-0.8,1-1.3,2.2-1.3,3.7v10.6h-4.2v-18.7h4.2v3.1h0.1c1.4-2.4,3.4-3.5,6-3.5 c2,0,3.6,0.7,4.6,2c1.1,1.3,1.6,3.2,1.6,5.7V134.2z M597.9,134.2h-4.2v-18.7h4.2V134.2z M595.8,111.6c-0.7,0-1.3-0.2-1.8-0.7 c-0.5-0.5-0.7-1-0.7-1.7s0.2-1.3,0.7-1.7c0.5-0.5,1.1-0.7,1.8-0.7c0.7,0,1.3,0.2,1.8,0.7c0.5,0.5,0.7,1,0.7,1.7 c0,0.7-0.2,1.2-0.7,1.7C597.1,111.4,596.5,111.6,595.8,111.6 M590,134c-0.8,0.4-1.9,0.6-3.3,0.6c-3.6,0-5.4-1.7-5.4-5.2v-10.5h-3.1 v-3.3h3.1v-4.3l4.2-1.2v5.5h4.5v3.3h-4.5v9.3c0,1.1,0.2,1.9,0.6,2.4c0.4,0.5,1.1,0.7,2,0.7c0.7,0,1.3-0.2,1.9-0.6V134z M562.9,133.6v-3.9c1.6,1.2,3.3,1.8,5.2,1.8c2.6,0,3.8-0.8,3.8-2.3c0-0.4-0.1-0.8-0.3-1.1c-0.2-0.3-0.5-0.6-0.9-0.8 c-0.4-0.2-0.8-0.4-1.3-0.6c-0.5-0.2-1.1-0.4-1.7-0.6c-0.8-0.3-1.5-0.6-2.1-1c-0.6-0.3-1.1-0.7-1.5-1.2c-0.4-0.4-0.7-0.9-0.9-1.5 c-0.2-0.5-0.3-1.2-0.3-1.9c0-0.9,0.2-1.7,0.6-2.4c0.4-0.7,1-1.3,1.7-1.7c0.7-0.5,1.5-0.8,2.4-1.1c0.9-0.2,1.9-0.4,2.8-0.4 c1.7,0,3.3,0.3,4.6,0.8v3.7c-1.3-0.9-2.8-1.3-4.5-1.3c-0.5,0-1,0.1-1.4,0.2c-0.4,0.1-0.8,0.3-1.1,0.5c-0.3,0.2-0.5,0.4-0.7,0.7 c-0.2,0.3-0.3,0.6-0.3,0.9c0,0.4,0.1,0.7,0.3,1c0.2,0.3,0.4,0.5,0.8,0.7c0.3,0.2,0.7,0.4,1.2,0.6c0.5,0.2,1,0.4,1.6,0.6 c0.8,0.3,1.5,0.7,2.2,1c0.6,0.3,1.2,0.7,1.6,1.2c0.4,0.4,0.8,0.9,1,1.5c0.2,0.6,0.4,1.2,0.4,2c0,0.9-0.2,1.8-0.7,2.5 c-0.4,0.7-1,1.3-1.7,1.8c-0.7,0.5-1.6,0.8-2.5,1c-1,0.2-2,0.3-3,0.3C566.2,134.6,564.4,134.3,562.9,133.6 M550.3,118.4 c-1.7,0-3,0.6-3.9,1.7s-1.4,2.8-1.4,4.8c0,2,0.5,3.5,1.5,4.6c1,1.1,2.3,1.7,3.9,1.7c1.7,0,2.9-0.6,3.8-1.7c0.9-1.1,1.3-2.7,1.3-4.7 c0-2.1-0.4-3.6-1.3-4.8C553.2,119,551.9,118.4,550.3,118.4 M550.1,134.6c-2.9,0-5.2-0.9-6.9-2.6c-1.7-1.7-2.6-4.1-2.6-6.9 c0-3.1,0.9-5.6,2.7-7.4c1.8-1.8,4.2-2.6,7.2-2.6c2.9,0,5.2,0.9,6.8,2.6c1.6,1.7,2.4,4.1,2.4,7.1c0,3-0.9,5.4-2.6,7.2 C555.4,133.7,553,134.6,550.1,134.6 M535.8,134.2h-4.4v-11.3h-12.3v11.3h-4.3V108h4.3v11h12.3v-11h4.4V134.2z M491.2,129.3 c-1.4-1.5-3.6-3.8-6.7-7.1c-1.3,0.7-2.3,1.4-2.9,2.2c-0.6,0.8-0.9,1.7-0.9,2.8c0,0.6,0.1,1.2,0.4,1.7c0.2,0.5,0.6,1,1,1.3 c0.4,0.4,0.9,0.6,1.5,0.8c0.6,0.2,1.2,0.3,1.8,0.3C487.6,131.4,489.6,130.7,491.2,129.3 M489.8,113.5c0-0.4-0.1-0.8-0.2-1.1 c-0.2-0.3-0.4-0.7-0.6-0.9c-0.3-0.3-0.6-0.5-0.9-0.6c-0.3-0.2-0.7-0.2-1.1-0.2c-0.5,0-1,0.1-1.4,0.2c-0.4,0.1-0.8,0.4-1.1,0.7 c-0.3,0.3-0.5,0.6-0.7,1s-0.2,0.8-0.2,1.3c0,1.1,0.8,2.6,2.4,4.3C488.5,116.8,489.8,115.3,489.8,113.5 M495.7,134.2l-2.4-2.5 c-0.5,0.5-1.1,0.9-1.7,1.2c-0.6,0.4-1.3,0.7-2,0.9c-0.7,0.3-1.4,0.4-2.2,0.6c-0.8,0.1-1.5,0.2-2.3,0.2c-1.3,0-2.5-0.2-3.6-0.5 c-1.1-0.3-2-0.8-2.7-1.4c-0.7-0.6-1.3-1.4-1.7-2.3c-0.4-0.9-0.6-1.8-0.6-2.9c0-3,2-5.5,6-7.6c-1.8-2.3-2.8-4.3-2.8-6 c0-0.9,0.2-1.8,0.5-2.5c0.4-0.8,0.9-1.4,1.5-2c0.6-0.6,1.4-1,2.3-1.3c0.9-0.3,1.9-0.5,2.9-0.5c1,0,1.9,0.1,2.7,0.4 c0.8,0.3,1.5,0.7,2.1,1.2c0.6,0.5,1,1.1,1.4,1.8c0.3,0.7,0.5,1.4,0.5,2.2c0,0.8-0.1,1.5-0.3,2.1c-0.2,0.6-0.5,1.2-1,1.8 c-0.4,0.6-1,1.1-1.7,1.6c-0.7,0.5-1.6,1-2.7,1.5c1,1,1.9,2.1,2.9,3.1c1,1,2,2.1,3,3.1c0.3-0.4,0.5-0.8,0.7-1.3 c0.2-0.5,0.4-1,0.5-1.5c0.1-0.5,0.3-1.1,0.4-1.7c0.1-0.6,0.1-1.1,0.1-1.7h3.7c0,3.3-1.1,6.3-3.2,8.8c0.5,0.6,1.2,1.3,2.1,2.1 c0.8,0.8,1.8,1.8,2.9,3H495.7z M461.9,134.2h-4.2v-10.5c0-3.5-1.2-5.2-3.7-5.2c-1.3,0-2.4,0.5-3.2,1.4c-0.8,1-1.3,2.2-1.3,3.7v10.6 h-4.2v-18.7h4.2v3.1h0.1c1.4-2.4,3.4-3.5,6-3.5c2,0,3.6,0.7,4.6,2c1.1,1.3,1.6,3.2,1.6,5.7V134.2z M439.8,134.2h-4.2v-18.7h4.2 V134.2z M437.7,111.6c-0.7,0-1.3-0.2-1.8-0.7c-0.5-0.5-0.7-1-0.7-1.7s0.2-1.3,0.7-1.7c0.5-0.5,1.1-0.7,1.8-0.7 c0.7,0,1.3,0.2,1.8,0.7c0.5,0.5,0.7,1,0.7,1.7c0,0.7-0.2,1.2-0.7,1.7C439,111.4,438.4,111.6,437.7,111.6 M426.3,125l-3.9,0.5 c-1.2,0.2-2.1,0.4-2.7,0.9c-0.6,0.4-0.9,1.2-0.9,2.3c0,0.8,0.3,1.4,0.8,1.9c0.6,0.5,1.3,0.8,2.3,0.8c1.3,0,2.4-0.5,3.2-1.4 c0.8-0.9,1.3-2,1.3-3.4V125z M430.4,134.2h-4.1v-2.9h-0.1c-1.3,2.2-3.2,3.4-5.7,3.4c-1.8,0-3.3-0.5-4.3-1.5s-1.6-2.3-1.6-4 c0-3.5,2-5.6,6.1-6.2l5.5-0.8c0-2.7-1.3-4-3.8-4c-2.2,0-4.2,0.8-6,2.3v-3.7c2-1.2,4.2-1.7,6.8-1.7c4.7,0,7.1,2.3,7.1,7V134.2z M410.9,134.2h-4.2V124c0-2-0.3-3.4-0.8-4.3c-0.5-0.9-1.5-1.3-2.8-1.3c-1.1,0-2,0.6-2.8,1.7c-0.8,1.1-1.2,2.4-1.2,4v10.1h-4.2 v-10.5c0-3.5-1.2-5.2-3.7-5.2c-1.1,0-2.1,0.5-2.8,1.6c-0.7,1.1-1.1,2.4-1.1,4.1v10.1H383v-18.7h4.2v2.9h0.1 c1.3-2.3,3.3-3.4,5.9-3.4c1.3,0,2.4,0.4,3.4,1.1c1,0.7,1.6,1.6,2,2.8c1.4-2.6,3.5-3.9,6.2-3.9c4.1,0,6.2,2.5,6.2,7.6V134.2z M369.2,118.4c-1.7,0-3,0.6-3.9,1.7s-1.4,2.8-1.4,4.8c0,2,0.5,3.5,1.5,4.6c1,1.1,2.3,1.7,3.9,1.7c1.7,0,2.9-0.6,3.8-1.7 c0.9-1.1,1.3-2.7,1.3-4.7c0-2.1-0.4-3.6-1.3-4.8C372.2,119,370.9,118.4,369.2,118.4 M369,134.6c-2.9,0-5.2-0.9-6.9-2.6 c-1.7-1.7-2.6-4.1-2.6-6.9c0-3.1,0.9-5.6,2.7-7.4c1.8-1.8,4.2-2.6,7.2-2.6c2.9,0,5.2,0.9,6.8,2.6c1.6,1.7,2.4,4.1,2.4,7.1 c0,3-0.9,5.4-2.6,7.2C374.3,133.7,372,134.6,369,134.6 M338.7,111.7v18.8h3.5c3,0,5.4-0.8,7.1-2.5c1.7-1.7,2.5-4,2.5-7.1 c0-6.1-3.2-9.2-9.5-9.2H338.7z M334.4,134.2V108h7.5c9.6,0,14.5,4.2,14.5,12.7c0,4-1.3,7.3-4,9.7c-2.7,2.4-6.3,3.7-10.8,3.7H334.4z M320,134c-0.8,0.4-1.9,0.6-3.3,0.6c-3.6,0-5.4-1.7-5.4-5.2v-10.5h-3.1v-3.3h3.1v-4.3l4.2-1.2v5.5h4.5v3.3h-4.5v9.3 c0,1.1,0.2,1.9,0.6,2.4c0.4,0.5,1.1,0.7,2,0.7c0.7,0,1.3-0.2,1.9-0.6V134z M292.9,133.6v-3.9c1.6,1.2,3.3,1.8,5.2,1.8 c2.6,0,3.8-0.8,3.8-2.3c0-0.4-0.1-0.8-0.3-1.1c-0.2-0.3-0.5-0.6-0.9-0.8c-0.4-0.2-0.8-0.4-1.3-0.6c-0.5-0.2-1.1-0.4-1.7-0.6 c-0.8-0.3-1.5-0.6-2.1-1c-0.6-0.3-1.1-0.7-1.5-1.2c-0.4-0.4-0.7-0.9-0.9-1.5c-0.2-0.5-0.3-1.2-0.3-1.9c0-0.9,0.2-1.7,0.6-2.4 c0.4-0.7,1-1.3,1.7-1.7c0.7-0.5,1.5-0.8,2.4-1.1c0.9-0.2,1.9-0.4,2.8-0.4c1.7,0,3.3,0.3,4.6,0.8v3.7c-1.3-0.9-2.8-1.3-4.5-1.3 c-0.5,0-1,0.1-1.4,0.2c-0.4,0.1-0.8,0.3-1.1,0.5c-0.3,0.2-0.5,0.4-0.7,0.7c-0.2,0.3-0.3,0.6-0.3,0.9c0,0.4,0.1,0.7,0.3,1 c0.2,0.3,0.4,0.5,0.8,0.7c0.3,0.2,0.7,0.4,1.2,0.6c0.5,0.2,1,0.4,1.6,0.6c0.8,0.3,1.5,0.7,2.2,1c0.6,0.3,1.2,0.7,1.6,1.2 c0.4,0.4,0.8,0.9,1,1.5c0.2,0.6,0.4,1.2,0.4,2c0,0.9-0.2,1.8-0.7,2.5c-0.4,0.7-1,1.3-1.7,1.8c-0.7,0.5-1.6,0.8-2.5,1 c-1,0.2-2,0.3-3,0.3C296.2,134.6,294.4,134.3,292.9,133.6 M286,123c0-1.5-0.4-2.7-1.1-3.5c-0.7-0.8-1.7-1.3-2.9-1.3 c-1.2,0-2.2,0.4-3.1,1.3c-0.8,0.9-1.4,2-1.6,3.5H286z M290.1,126h-12.7c0,1.7,0.6,3.1,1.6,4c1,0.9,2.4,1.4,4.2,1.4 c2,0,3.8-0.6,5.5-1.8v3.4c-1.7,1.1-4,1.6-6.7,1.6c-2.7,0-4.9-0.8-6.5-2.5c-1.6-1.7-2.3-4.1-2.3-7.2c0-2.9,0.9-5.3,2.6-7.1 c1.7-1.8,3.9-2.7,6.4-2.7c2.6,0,4.5,0.8,5.9,2.5c1.4,1.6,2.1,3.9,2.1,6.8V126z M256.5,122.4v8.3h3.7c1.6,0,2.9-0.4,3.7-1.1 c0.9-0.8,1.3-1.8,1.3-3.1c0-2.7-1.9-4.1-5.6-4.1H256.5z M256.5,111.5v7.4h2.8c1.5,0,2.7-0.4,3.5-1.1c0.9-0.7,1.3-1.7,1.3-3 c0-2.2-1.5-3.3-4.5-3.3H256.5z M252.2,134.2V108h8.3c2.5,0,4.5,0.6,6,1.7c1.5,1.1,2.2,2.5,2.2,4.3c0,1.5-0.4,2.8-1.3,3.9 c-0.8,1.1-2,1.9-3.5,2.3v0.1c1.8,0.2,3.2,0.9,4.3,2c1.1,1.1,1.6,2.6,1.6,4.4c0,2.2-0.9,4.1-2.6,5.4c-1.8,1.4-4,2.1-6.7,2.1H252.2z"/>
    <path class="st2" d="M285.7,76.6l-8.4-22.7c-0.3-0.7-0.5-1.9-0.8-3.6h-0.2c-0.2,1.5-0.5,2.7-0.9,3.6l-8.3,22.7H285.7z M300.3,97.2 h-6.9l-5.7-14.9h-22.6l-5.3,14.9h-6.9l20.5-53.3h6.5L300.3,97.2z"/>
    <path class="st2" d="M351.2,97.2h-7.7l-27.5-42.5c-0.7-1.1-1.3-2.2-1.7-3.3h-0.2c0.2,1.1,0.3,3.6,0.3,7.3v38.5h-6.2V43.9h8.1 L343,85.7c1.1,1.7,1.8,2.9,2.2,3.6h0.2c-0.3-1.5-0.4-4.2-0.4-7.8V43.9h6.3V97.2z"/>
    <polygon class="st2" points="396.7,49.5 381.3,49.5 381.3,97.2 375.1,97.2 375.1,49.5 359.7,49.5 359.7,43.9 396.7,43.9 &#9;"/>
    <path class="st3" d="M817.8,49.5h-15.4v47.7h-6.2V49.5h-15.4v-5.6h37V49.5z M744,95v-7.4c0.9,0.7,1.9,1.4,3,2 c1.2,0.6,2.4,1.1,3.7,1.5c1.3,0.4,2.6,0.7,3.9,1c1.3,0.2,2.5,0.3,3.6,0.3c3.8,0,6.7-0.7,8.6-2.1c1.9-1.4,2.8-3.5,2.8-6.1 c0-1.4-0.3-2.7-1-3.8c-0.6-1.1-1.5-2-2.6-2.9c-1.1-0.9-2.4-1.7-4-2.5c-1.5-0.8-3.2-1.7-4.9-2.5c-1.9-1-3.6-1.9-5.2-2.9 c-1.6-1-3-2-4.2-3.2c-1.2-1.2-2.1-2.5-2.8-4c-0.7-1.5-1-3.2-1-5.2c0-2.4,0.5-4.5,1.6-6.4c1.1-1.8,2.5-3.3,4.2-4.4 c1.7-1.2,3.7-2,5.9-2.6c2.2-0.6,4.5-0.9,6.8-0.9c5.3,0,9.1,0.6,11.5,1.9v7c-3.1-2.2-7.2-3.3-12.1-3.3c-1.4,0-2.7,0.1-4.1,0.4 c-1.4,0.3-2.6,0.8-3.6,1.4c-1.1,0.6-1.9,1.5-2.6,2.5c-0.7,1-1,2.3-1,3.7c0,1.4,0.3,2.5,0.8,3.5c0.5,1,1.3,1.9,2.2,2.7 c1,0.8,2.2,1.6,3.6,2.4c1.4,0.8,3.1,1.6,4.9,2.5c1.9,0.9,3.7,1.9,5.4,3c1.7,1,3.2,2.2,4.5,3.5c1.3,1.3,2.3,2.7,3.1,4.2 c0.8,1.5,1.1,3.3,1.1,5.3c0,2.6-0.5,4.9-1.5,6.7c-1,1.8-2.4,3.3-4.2,4.4c-1.8,1.1-3.8,2-6,2.5c-2.3,0.5-4.7,0.8-7.2,0.8 c-0.8,0-1.9-0.1-3.1-0.2c-1.2-0.1-2.5-0.3-3.8-0.6c-1.3-0.3-2.5-0.6-3.7-1C745.6,95.9,744.7,95.5,744,95 M711,48.6 c-5.6,0-10.1,2-13.7,6.1c-3.5,4-5.2,9.4-5.2,15.9c0,6.6,1.7,11.9,5.1,15.9c3.4,4,7.9,6,13.3,6c5.9,0,10.5-1.9,13.8-5.7 c3.4-3.8,5.1-9.2,5.1-16.1c0-7-1.6-12.5-4.9-16.3C721.3,50.5,716.8,48.6,711,48.6 M710.6,98.1c-7.6,0-13.6-2.5-18.2-7.5 c-4.5-5-6.8-11.5-6.8-19.5c0-8.6,2.3-15.4,7-20.6c4.6-5.1,11-7.7,19-7.7c7.4,0,13.3,2.5,17.8,7.4c4.5,5,6.8,11.5,6.8,19.5 c0,8.7-2.3,15.6-6.9,20.7C724.5,95.6,718.3,98.1,710.6,98.1 M675.1,97.2h-6.2V72.9h-27.6v24.3H635V43.9h6.2v23.4h27.6V43.9h6.2 V97.2z M612.5,76.6l-8.4-22.7c-0.3-0.7-0.5-1.9-0.8-3.6h-0.2c-0.2,1.5-0.5,2.7-0.9,3.6L594,76.6H612.5z M627.1,97.2h-6.9l-5.7-14.9 h-22.6l-5.3,14.9h-6.9l20.5-53.3h6.5L627.1,97.2z M571.8,97.2h-6.2V43.9h6.2V97.2z M518.3,49.5v42.1h8c7,0,12.4-1.9,16.3-5.6 c3.9-3.7,5.8-9.1,5.8-15.9c0-13.7-7.3-20.5-21.8-20.5H518.3z M512.1,97.2V43.9h14.7c18.8,0,28.2,8.7,28.2,26 c0,8.2-2.6,14.8-7.8,19.9c-5.2,5-12.2,7.5-21,7.5H512.1z M501.8,97.2h-28.3V43.9h27.1v5.6h-20.8v17.8h19.3v5.6h-19.3v18.7h22V97.2z M459.5,97.2h-6.2V61.4c0-2.8,0.2-6.3,0.5-10.4h-0.2c-0.6,2.4-1.1,4.1-1.6,5.2l-18.2,41h-3.1l-18.2-40.7c-0.5-1.2-1.1-3-1.6-5.5 h-0.2c0.2,2.1,0.3,5.6,0.3,10.5v35.7h-6V43.9h8.3l16.4,37.2c1.3,2.8,2.1,5,2.5,6.4h0.2c1.1-2.9,1.9-5.1,2.6-6.6l16.7-37h7.8V97.2z"/>
    <rect x="230.5" y="41.7" class="st4" width="4.3" height="92.3"/>
  </g>
</svg>